<svg width="40" height="36" viewBox="0 0 40 36" fill="none" xmlns="http://www.w3.org/2000/svg">
<path d="M20.029 10.559C22.6807 10.559 24.8304 8.50927 24.8304 5.98076C24.8304 3.45225 22.6807 1.40248 20.029 1.40248C17.3772 1.40248 15.2275 3.45225 15.2275 5.98076C15.2275 8.50927 17.3772 10.559 20.029 10.559Z" stroke="black" stroke-width="1.6" stroke-miterlimit="10"/>
<path d="M10.5 17.3682C10.9645 15.4069 12.1134 13.6539 13.7587 12.3962C15.4039 11.1384 17.4481 10.4503 19.5569 10.4445C21.6656 10.4386 23.714 11.1154 25.3669 12.364C27.0198 13.6126 28.1793 15.3592 28.6558 17.3179" stroke="black" stroke-width="1.6" stroke-miterlimit="10" stroke-linecap="round"/>
<path d="M2.42584 27.9H3.38584L5.56984 33.5H4.56984L4.09784 32.308H1.70584L1.24184 33.5H0.233844L2.42584 27.9ZM3.75384 31.428L2.89784 29.196L2.04984 31.428H3.75384ZM10.3225 31.876L10.9225 32.532C10.6772 32.8413 10.3759 33.0947 10.0185 33.292C9.6612 33.4893 9.21853 33.588 8.69053 33.588C8.27453 33.588 7.8852 33.5187 7.52253 33.38C7.1652 33.236 6.85586 33.0387 6.59453 32.788C6.33853 32.5373 6.13586 32.236 5.98653 31.884C5.8372 31.5267 5.76253 31.1347 5.76253 30.708C5.76253 30.276 5.83453 29.8813 5.97853 29.524C6.12786 29.1613 6.33053 28.8547 6.58653 28.604C6.84786 28.348 7.15453 28.1507 7.50653 28.012C7.86386 27.8733 8.24786 27.804 8.65853 27.804C9.15453 27.804 9.58386 27.9 9.94653 28.092C10.3092 28.284 10.6079 28.54 10.8425 28.86L10.2265 29.5C10.0612 29.2653 9.85053 29.0707 9.59453 28.916C9.34386 28.756 9.0372 28.676 8.67453 28.676C8.40253 28.676 8.14653 28.7267 7.90653 28.828C7.67186 28.9293 7.46653 29.0707 7.29053 29.252C7.11986 29.4333 6.98386 29.6493 6.88253 29.9C6.78653 30.1453 6.73853 30.4147 6.73853 30.708C6.73853 30.996 6.78653 31.2627 6.88253 31.508C6.98386 31.7533 7.11986 31.9667 7.29053 32.148C7.46653 32.324 7.67453 32.4627 7.91453 32.564C8.15986 32.6653 8.42386 32.716 8.70653 32.716C9.06386 32.716 9.3732 32.6413 9.63453 32.492C9.9012 32.3373 10.1305 32.132 10.3225 31.876ZM16.1194 31.876L16.7194 32.532C16.4741 32.8413 16.1727 33.0947 15.8154 33.292C15.4581 33.4893 15.0154 33.588 14.4874 33.588C14.0714 33.588 13.6821 33.5187 13.3194 33.38C12.9621 33.236 12.6527 33.0387 12.3914 32.788C12.1354 32.5373 11.9327 32.236 11.7834 31.884C11.6341 31.5267 11.5594 31.1347 11.5594 30.708C11.5594 30.276 11.6314 29.8813 11.7754 29.524C11.9247 29.1613 12.1274 28.8547 12.3834 28.604C12.6447 28.348 12.9514 28.1507 13.3034 28.012C13.6607 27.8733 14.0447 27.804 14.4554 27.804C14.9514 27.804 15.3807 27.9 15.7434 28.092C16.1061 28.284 16.4047 28.54 16.6394 28.86L16.0234 29.5C15.8581 29.2653 15.6474 29.0707 15.3914 28.916C15.1407 28.756 14.8341 28.676 14.4714 28.676C14.1994 28.676 13.9434 28.7267 13.7034 28.828C13.4687 28.9293 13.2634 29.0707 13.0874 29.252C12.9167 29.4333 12.7807 29.6493 12.6794 29.9C12.5834 30.1453 12.5354 30.4147 12.5354 30.708C12.5354 30.996 12.5834 31.2627 12.6794 31.508C12.7807 31.7533 12.9167 31.9667 13.0874 32.148C13.2634 32.324 13.4714 32.4627 13.7114 32.564C13.9567 32.6653 14.2207 32.716 14.5034 32.716C14.8607 32.716 15.1701 32.6413 15.4314 32.492C15.6981 32.3373 15.9274 32.132 16.1194 31.876ZM17.3563 30.692C17.3563 30.2867 17.4283 29.908 17.5723 29.556C17.7163 29.1987 17.9136 28.892 18.1643 28.636C18.4203 28.38 18.7216 28.1773 19.0683 28.028C19.4149 27.8787 19.7883 27.804 20.1883 27.804C20.5883 27.804 20.9616 27.8787 21.3083 28.028C21.6603 28.1773 21.9643 28.38 22.2203 28.636C22.4763 28.892 22.6763 29.1987 22.8203 29.556C22.9696 29.908 23.0443 30.2867 23.0443 30.692C23.0443 31.1027 22.9696 31.4867 22.8203 31.844C22.6763 32.196 22.4763 32.5027 22.2203 32.764C21.9643 33.02 21.6603 33.2227 21.3083 33.372C20.9616 33.516 20.5883 33.588 20.1883 33.588C19.7883 33.588 19.4149 33.516 19.0683 33.372C18.7216 33.2227 18.4203 33.02 18.1643 32.764C17.9136 32.5027 17.7163 32.196 17.5723 31.844C17.4283 31.4867 17.3563 31.1027 17.3563 30.692ZM18.3323 30.692C18.3323 30.98 18.3776 31.2493 18.4683 31.5C18.5643 31.7453 18.6949 31.9587 18.8603 32.14C19.0256 32.316 19.2256 32.4573 19.4603 32.564C19.6949 32.6653 19.9483 32.716 20.2203 32.716C20.4869 32.716 20.7349 32.6653 20.9643 32.564C21.1936 32.4573 21.3909 32.316 21.5563 32.14C21.7216 31.9587 21.8496 31.7453 21.9403 31.5C22.0363 31.2493 22.0843 30.98 22.0843 30.692C22.0843 30.4093 22.0363 30.1453 21.9403 29.9C21.8496 29.6547 21.7216 29.444 21.5563 29.268C21.3909 29.0867 21.1936 28.9453 20.9643 28.844C20.7349 28.7373 20.4869 28.684 20.2203 28.684C19.9483 28.684 19.6949 28.7373 19.4603 28.844C19.2256 28.9453 19.0256 29.0867 18.8603 29.268C18.6949 29.444 18.5643 29.6547 18.4683 29.9C18.3776 30.1453 18.3323 30.4093 18.3323 30.692ZM27.5382 31.012V27.9H28.4982V31.012C28.4982 31.4387 28.4422 31.8147 28.3302 32.14C28.2235 32.46 28.0715 32.7267 27.8742 32.94C27.6768 33.1533 27.4368 33.316 27.1542 33.428C26.8768 33.5347 26.5702 33.588 26.2342 33.588C25.8982 33.588 25.5888 33.5347 25.3062 33.428C25.0288 33.316 24.7915 33.1533 24.5942 32.94C24.3968 32.7267 24.2422 32.46 24.1302 32.14C24.0235 31.8147 23.9702 31.4387 23.9702 31.012V27.9H24.9302V31.02C24.9302 31.532 25.0288 31.9453 25.2262 32.26C25.4288 32.5693 25.7648 32.724 26.2342 32.724C26.7088 32.724 27.0448 32.5693 27.2422 32.26C27.4395 31.9453 27.5382 31.5293 27.5382 31.012ZM34.3946 33.5H33.4346L30.6506 29.556V33.5H29.6986V27.9H30.6506L33.4346 31.86V27.9H34.3946V33.5ZM35.3152 28.764V27.9H39.6272V28.764H37.9472V33.5H36.9952V28.764H35.3152Z" fill="black"/>
</svg>
