<svg width="22" height="37" viewBox="0 0 22 37" fill="none" xmlns="http://www.w3.org/2000/svg">
<path d="M8.0083 9.69316V4.16989C8.04518 3.4087 8.37763 2.69316 8.93314 2.17932C9.48864 1.66548 10.2221 1.39502 10.9737 1.42693V1.42693C11.7252 1.39502 12.4587 1.66548 13.0142 2.17932C13.5697 2.69316 13.9022 3.4087 13.9391 4.16989V9.69316" stroke="black" stroke-width="1.6" stroke-miterlimit="10" stroke-linecap="round"/>
<path d="M11.0315 18.5677H17.1888C17.2836 18.5677 17.4311 18.5677 17.4785 18.4717C17.5352 18.3798 17.5695 18.2755 17.5786 18.1675L16.7938 6.77409C16.7952 6.72158 16.7861 6.66933 16.7671 6.62047C16.7481 6.57161 16.7195 6.52715 16.6831 6.48977C16.6467 6.45238 16.6032 6.42284 16.5553 6.40292C16.5073 6.383 16.4558 6.37311 16.404 6.37385H5.59588C5.54405 6.37311 5.4926 6.383 5.44464 6.40292C5.39667 6.42284 5.35318 6.45238 5.31677 6.48977C5.28036 6.52715 5.25179 6.57161 5.23277 6.62047C5.21376 6.66933 5.20469 6.72158 5.20611 6.77409L4.44238 18.1675C4.45145 18.2755 4.48575 18.3798 4.54246 18.4717C4.58986 18.5677 4.73734 18.5677 4.83215 18.5677H11.0315Z" stroke="black" stroke-width="1.6" stroke-miterlimit="10"/>
<path d="M5.303 32.876L5.903 33.532C5.65767 33.8413 5.35633 34.0947 4.999 34.292C4.64167 34.4893 4.199 34.588 3.671 34.588C3.255 34.588 2.86567 34.5187 2.503 34.38C2.14567 34.236 1.83633 34.0387 1.575 33.788C1.319 33.5373 1.11633 33.236 0.967 32.884C0.817667 32.5267 0.743 32.1347 0.743 31.708C0.743 31.276 0.815 30.8813 0.959 30.524C1.10833 30.1613 1.311 29.8547 1.567 29.604C1.82833 29.348 2.135 29.1507 2.487 29.012C2.84433 28.8733 3.22833 28.804 3.639 28.804C4.135 28.804 4.56433 28.9 4.927 29.092C5.28967 29.284 5.58833 29.54 5.823 29.86L5.207 30.5C5.04167 30.2653 4.831 30.0707 4.575 29.916C4.32433 29.756 4.01767 29.676 3.655 29.676C3.383 29.676 3.127 29.7267 2.887 29.828C2.65233 29.9293 2.447 30.0707 2.271 30.252C2.10033 30.4333 1.96433 30.6493 1.863 30.9C1.767 31.1453 1.719 31.4147 1.719 31.708C1.719 31.996 1.767 32.2627 1.863 32.508C1.96433 32.7533 2.10033 32.9667 2.271 33.148C2.447 33.324 2.655 33.4627 2.895 33.564C3.14033 33.6653 3.40433 33.716 3.687 33.716C4.04433 33.716 4.35367 33.6413 4.615 33.492C4.88167 33.3373 5.111 33.132 5.303 32.876ZM8.30475 28.9H9.26475L11.4488 34.5H10.4488L9.97675 33.308H7.58475L7.12075 34.5H6.11275L8.30475 28.9ZM9.63275 32.428L8.77675 30.196L7.92875 32.428H9.63275ZM16.6498 34.5H15.5218L14.3458 32.588H13.1858V34.5H12.2338V28.9H14.3698C15.0204 28.9 15.5378 29.06 15.9218 29.38C16.3111 29.6947 16.5058 30.1427 16.5058 30.724C16.5058 31.14 16.4044 31.4947 16.2018 31.788C15.9991 32.0813 15.7191 32.2947 15.3618 32.428L16.6498 34.5ZM14.2498 29.764H13.1858V31.716H14.2498C14.6498 31.716 14.9671 31.6413 15.2018 31.492C15.4364 31.3427 15.5538 31.0893 15.5538 30.732C15.5538 30.396 15.4364 30.1507 15.2018 29.996C14.9671 29.8413 14.6498 29.764 14.2498 29.764ZM17.03 29.764V28.9H21.342V29.764H19.662V34.5H18.71V29.764H17.03Z" fill="black"/>
</svg>
