<svg width="44" height="37" viewBox="0 0 44 37" fill="none" xmlns="http://www.w3.org/2000/svg">
<path d="M30.1363 2.96304C29.6727 2.48258 29.1189 2.10079 28.5075 1.84013C27.8961 1.57947 27.2394 1.44519 26.576 1.44519C25.9125 1.44519 25.2558 1.57947 24.6444 1.84013C24.033 2.10079 23.4792 2.48258 23.0157 2.96304L21.9923 3.99909L20.9797 2.96304C20.5161 2.48258 19.9623 2.10079 19.3509 1.84013C18.7395 1.57947 18.0828 1.44519 17.4193 1.44519C16.7559 1.44519 16.0992 1.57947 15.4878 1.84013C14.8764 2.10079 14.3226 2.48258 13.859 2.96304V2.96304C13.3861 3.43216 13.0104 3.99211 12.7539 4.61008C12.4974 5.22806 12.3652 5.89164 12.3652 6.56195C12.3652 7.23227 12.4974 7.89584 12.7539 8.51382C13.0104 9.13179 13.3861 9.69174 13.859 10.1609L16.1751 12.5056L18.4373 14.7958L21.9923 18.3947L25.5472 14.7958L27.8094 12.5056L30.1255 10.1609C30.5992 9.69246 30.9757 9.13309 31.2331 8.51551C31.4906 7.89793 31.6237 7.23456 31.6247 6.56424C31.6257 5.89393 31.4946 5.23015 31.239 4.61178C30.9834 3.99341 30.6085 3.43289 30.1363 2.96304V2.96304Z" stroke="black" stroke-width="1.6" stroke-miterlimit="10"/>
<path d="M1.93575 32.076V34.5H0.98375V28.9H4.65575V29.764H1.93575V31.204H4.47175V32.076H1.93575ZM6.67194 28.9H7.63194L9.81594 34.5H8.81594L8.34394 33.308H5.95194L5.48794 34.5H4.47994L6.67194 28.9ZM7.99994 32.428L7.14394 30.196L6.29594 32.428H7.99994ZM10.4253 28.9L11.8973 33.348L13.3453 28.9H14.3293L12.4173 34.5H11.3693L9.44125 28.9H10.4253ZM14.7039 31.692C14.7039 31.2867 14.7759 30.908 14.9199 30.556C15.0639 30.1987 15.2613 29.892 15.5119 29.636C15.7679 29.38 16.0693 29.1773 16.4159 29.028C16.7626 28.8787 17.1359 28.804 17.5359 28.804C17.9359 28.804 18.3093 28.8787 18.6559 29.028C19.0079 29.1773 19.3119 29.38 19.5679 29.636C19.8239 29.892 20.0239 30.1987 20.1679 30.556C20.3173 30.908 20.3919 31.2867 20.3919 31.692C20.3919 32.1027 20.3173 32.4867 20.1679 32.844C20.0239 33.196 19.8239 33.5027 19.5679 33.764C19.3119 34.02 19.0079 34.2227 18.6559 34.372C18.3093 34.516 17.9359 34.588 17.5359 34.588C17.1359 34.588 16.7626 34.516 16.4159 34.372C16.0693 34.2227 15.7679 34.02 15.5119 33.764C15.2613 33.5027 15.0639 33.196 14.9199 32.844C14.7759 32.4867 14.7039 32.1027 14.7039 31.692ZM15.6799 31.692C15.6799 31.98 15.7253 32.2493 15.8159 32.5C15.9119 32.7453 16.0426 32.9587 16.2079 33.14C16.3733 33.316 16.5733 33.4573 16.8079 33.564C17.0426 33.6653 17.2959 33.716 17.5679 33.716C17.8346 33.716 18.0826 33.6653 18.3119 33.564C18.5413 33.4573 18.7386 33.316 18.9039 33.14C19.0693 32.9587 19.1973 32.7453 19.2879 32.5C19.3839 32.2493 19.4319 31.98 19.4319 31.692C19.4319 31.4093 19.3839 31.1453 19.2879 30.9C19.1973 30.6547 19.0693 30.444 18.9039 30.268C18.7386 30.0867 18.5413 29.9453 18.3119 29.844C18.0826 29.7373 17.8346 29.684 17.5679 29.684C17.2959 29.684 17.0426 29.7373 16.8079 29.844C16.5733 29.9453 16.3733 30.0867 16.2079 30.268C16.0426 30.444 15.9119 30.6547 15.8159 30.9C15.7253 31.1453 15.6799 31.4093 15.6799 31.692ZM25.8138 34.5H24.6858L23.5098 32.588H22.3498V34.5H21.3978V28.9H23.5338C24.1845 28.9 24.7018 29.06 25.0858 29.38C25.4751 29.6947 25.6698 30.1427 25.6698 30.724C25.6698 31.14 25.5685 31.4947 25.3658 31.788C25.1631 32.0813 24.8831 32.2947 24.5258 32.428L25.8138 34.5ZM23.4138 29.764H22.3498V31.716H23.4138C23.8138 31.716 24.1311 31.6413 24.3658 31.492C24.6005 31.3427 24.7178 31.0893 24.7178 30.732C24.7178 30.396 24.6005 30.1507 24.3658 29.996C24.1311 29.8413 23.8138 29.764 23.4138 29.764ZM27.7092 34.5H26.7572V28.9H27.7092V34.5ZM28.6316 29.764V28.9H32.9436V29.764H31.2636V34.5H30.3116V29.764H28.6316ZM37.8106 34.5H33.8666V28.9H37.8106V29.764H34.8186V31.204H37.6746V32.076H34.8186V33.636H37.8106V34.5ZM41.3592 32.18L40.6792 32.068C40.1672 31.9827 39.7645 31.7987 39.4712 31.516C39.1832 31.2333 39.0392 30.8653 39.0392 30.412C39.0392 30.1613 39.0925 29.9373 39.1992 29.74C39.3059 29.5373 39.4472 29.3693 39.6232 29.236C39.8045 29.0973 40.0152 28.9907 40.2552 28.916C40.4952 28.8413 40.7485 28.804 41.0152 28.804C41.5112 28.804 41.9245 28.8947 42.2552 29.076C42.5859 29.2573 42.8632 29.4653 43.0872 29.7L42.4232 30.404C42.2685 30.2173 42.0739 30.0493 41.8392 29.9C41.6045 29.7453 41.3165 29.668 40.9752 29.668C40.6339 29.668 40.3859 29.748 40.2312 29.908C40.0765 30.0627 39.9992 30.2227 39.9992 30.388C39.9992 30.5747 40.0659 30.7347 40.1992 30.868C40.3379 30.996 40.5672 31.0867 40.8872 31.14L41.4472 31.236C42.0445 31.3373 42.4845 31.5373 42.7672 31.836C43.0552 32.1347 43.1992 32.5053 43.1992 32.948C43.1992 33.4173 43.0099 33.8093 42.6312 34.124C42.2525 34.4333 41.7272 34.588 41.0552 34.588C40.5379 34.588 40.0925 34.4813 39.7192 34.268C39.3512 34.0547 39.0525 33.804 38.8232 33.516L39.4712 32.86C39.6419 33.084 39.8552 33.284 40.1112 33.46C40.3725 33.636 40.7272 33.724 41.1752 33.724C41.5272 33.724 41.7912 33.652 41.9672 33.508C42.1485 33.3587 42.2392 33.1773 42.2392 32.964C42.2392 32.7827 42.1725 32.62 42.0392 32.476C41.9112 32.332 41.6845 32.2333 41.3592 32.18Z" fill="black"/>
</svg>
