<svg width="45" height="36" viewBox="0 0 45 36" fill="none" xmlns="http://www.w3.org/2000/svg">
<g clip-path="url(#clip0_2401_223)">
<path d="M30.7515 15.4326L27.5305 12.2211C28.5697 10.8971 29.1336 9.2621 29.1315 7.57895C29.1315 6.07998 28.687 4.61466 27.8542 3.36831C27.0215 2.12196 25.8378 1.15055 24.4529 0.576916C23.068 0.00328381 21.5442 -0.146805 20.074 0.145631C18.6038 0.438066 17.2534 1.15989 16.1935 2.21983C15.1335 3.27976 14.4117 4.6302 14.1193 6.10037C13.8268 7.57054 13.9769 9.09442 14.5505 10.4793C15.1242 11.8642 16.0956 13.0478 17.3419 13.8806C18.5883 14.7134 20.0536 15.1579 21.5526 15.1579C23.2357 15.16 24.8707 14.5961 26.1947 13.5568L29.4063 16.7779C29.4943 16.8667 29.5991 16.9372 29.7146 16.9853C29.83 17.0334 29.9538 17.0581 30.0789 17.0581C30.204 17.0581 30.3278 17.0334 30.4432 16.9853C30.5587 16.9372 30.6635 16.8667 30.7515 16.7779C30.8403 16.6898 30.9108 16.585 30.9589 16.4696C31.007 16.3542 31.0318 16.2303 31.0318 16.1053C31.0318 15.9802 31.007 15.8564 30.9589 15.7409C30.9108 15.6255 30.8403 15.5207 30.7515 15.4326ZM15.8684 7.57895C15.8684 6.45472 16.2017 5.35574 16.8263 4.42097C17.4509 3.48621 18.3387 2.75765 19.3773 2.32743C20.416 1.8972 21.5589 1.78463 22.6615 2.00396C23.7641 2.22329 24.777 2.76466 25.5719 3.55961C26.3669 4.35456 26.9082 5.36739 27.1276 6.47002C27.3469 7.57265 27.2343 8.71555 26.8041 9.7542C26.3739 10.7929 25.6453 11.6806 24.7106 12.3052C23.7758 12.9298 22.6768 13.2632 21.5526 13.2632C20.045 13.2632 18.5992 12.6643 17.5332 11.5983C16.4672 10.5323 15.8684 9.0865 15.8684 7.57895Z" fill="black"/>
</g>
<path d="M9.09356 31.18L8.41356 31.068C7.90156 30.9827 7.4989 30.7987 7.20556 30.516C6.91756 30.2333 6.77356 29.8653 6.77356 29.412C6.77356 29.1613 6.8269 28.9373 6.93356 28.74C7.04023 28.5373 7.18156 28.3693 7.35756 28.236C7.5389 28.0973 7.74956 27.9907 7.98956 27.916C8.22956 27.8413 8.4829 27.804 8.74956 27.804C9.24556 27.804 9.6589 27.8947 9.98956 28.076C10.3202 28.2573 10.5976 28.4653 10.8216 28.7L10.1576 29.404C10.0029 29.2173 9.80823 29.0493 9.57356 28.9C9.3389 28.7453 9.0509 28.668 8.70956 28.668C8.36823 28.668 8.12023 28.748 7.96556 28.908C7.8109 29.0627 7.73356 29.2227 7.73356 29.388C7.73356 29.5747 7.80023 29.7347 7.93356 29.868C8.07223 29.996 8.30156 30.0867 8.62156 30.14L9.18156 30.236C9.7789 30.3373 10.2189 30.5373 10.5016 30.836C10.7896 31.1347 10.9336 31.5053 10.9336 31.948C10.9336 32.4173 10.7442 32.8093 10.3656 33.124C9.9869 33.4333 9.46156 33.588 8.78956 33.588C8.27223 33.588 7.8269 33.4813 7.45356 33.268C7.08556 33.0547 6.7869 32.804 6.55756 32.516L7.20556 31.86C7.37623 32.084 7.58956 32.284 7.84556 32.46C8.1069 32.636 8.46156 32.724 8.90956 32.724C9.26156 32.724 9.52556 32.652 9.70156 32.508C9.8829 32.3587 9.97356 32.1773 9.97356 31.964C9.97356 31.7827 9.9069 31.62 9.77356 31.476C9.64556 31.332 9.4189 31.2333 9.09356 31.18ZM15.9746 33.5H12.0306V27.9H15.9746V28.764H12.9826V30.204H15.8386V31.076H12.9826V32.636H15.9746V33.5ZM18.7891 27.9H19.7491L21.9331 33.5H20.9331L20.4611 32.308H18.0691L17.6051 33.5H16.5971L18.7891 27.9ZM20.1171 31.428L19.2611 29.196L18.4131 31.428H20.1171ZM27.1341 33.5H26.0061L24.8301 31.588H23.6701V33.5H22.7181V27.9H24.8541C25.5048 27.9 26.0221 28.06 26.4061 28.38C26.7955 28.6947 26.9901 29.1427 26.9901 29.724C26.9901 30.14 26.8888 30.4947 26.6861 30.788C26.4835 31.0813 26.2035 31.2947 25.8461 31.428L27.1341 33.5ZM24.7341 28.764H23.6701V30.716H24.7341C25.1341 30.716 25.4515 30.6413 25.6861 30.492C25.9208 30.3427 26.0381 30.0893 26.0381 29.732C26.0381 29.396 25.9208 29.1507 25.6861 28.996C25.4515 28.8413 25.1341 28.764 24.7341 28.764ZM32.2093 31.876L32.8093 32.532C32.5639 32.8413 32.2626 33.0947 31.9053 33.292C31.5479 33.4893 31.1053 33.588 30.5773 33.588C30.1613 33.588 29.7719 33.5187 29.4093 33.38C29.0519 33.236 28.7426 33.0387 28.4813 32.788C28.2253 32.5373 28.0226 32.236 27.8733 31.884C27.7239 31.5267 27.6493 31.1347 27.6493 30.708C27.6493 30.276 27.7213 29.8813 27.8653 29.524C28.0146 29.1613 28.2173 28.8547 28.4733 28.604C28.7346 28.348 29.0413 28.1507 29.3932 28.012C29.7506 27.8733 30.1346 27.804 30.5453 27.804C31.0413 27.804 31.4706 27.9 31.8333 28.092C32.1959 28.284 32.4946 28.54 32.7293 28.86L32.1133 29.5C31.9479 29.2653 31.7373 29.0707 31.4813 28.916C31.2306 28.756 30.9239 28.676 30.5613 28.676C30.2893 28.676 30.0333 28.7267 29.7933 28.828C29.5586 28.9293 29.3533 29.0707 29.1773 29.252C29.0066 29.4333 28.8706 29.6493 28.7693 29.9C28.6733 30.1453 28.6253 30.4147 28.6253 30.708C28.6253 30.996 28.6733 31.2627 28.7693 31.508C28.8706 31.7533 29.0066 31.9667 29.1773 32.148C29.3533 32.324 29.5613 32.4627 29.8013 32.564C30.0466 32.6653 30.3106 32.716 30.5933 32.716C30.9506 32.716 31.2599 32.6413 31.5213 32.492C31.7879 32.3373 32.0173 32.132 32.2093 31.876ZM38.2621 33.5H37.3021V31.076H34.6701V33.5H33.7181V27.9H34.6701V30.204H37.3021V27.9H38.2621V33.5Z" fill="black"/>
<defs>
<clipPath id="clip0_2401_223">
<rect width="18" height="18" fill="white" transform="translate(13.5)"/>
</clipPath>
</defs>
</svg>
